<svg xmlns="http://www.w3.org/2000/svg" xmlns:xlink="http://www.w3.org/1999/xlink" contentStyleType="text/css" data-diagram-type="SEQUENCE" height="745px" preserveAspectRatio="none" style="width:1238px;height:745px;background:#FFFFFF;" version="1.1" viewBox="0 0 1238 745" width="1238px" zoomAndPan="magnify"><?plantuml 1.2026.6?><defs/><g><g class="title" data-source-line="1"><text fill="#000000" font-family="sans-serif" font-size="14" font-weight="700" lengthAdjust="spacing" textLength="254.1875" x="387.7263" y="28.5352">POST /fraud-detection/{ref}/notify</text><text fill="#000000" font-family="sans-serif" font-size="14" font-weight="700" lengthAdjust="spacing" textLength="197.5859" x="646.5281" y="28.5352">&#8212; emit + log an alert event</text></g><rect fill="#FFFFCC" height="16.6406" rx="2.5" ry="2.5" style="stroke:#FFDD88;stroke-width:3;" width="1222.8403" x="3" y="45.4883"/><text fill="#000000" font-family="monospace" font-size="10" lengthAdjust="spacing" textLength="361.2305" x="10" y="56.1289">Please&#160;use&#160;CSS&#160;style&#160;instead&#160;of&#160;skinparam&#160;ParticipantPadding</text><g><title>FraudDetectionResource</title><rect fill="#DAE8FC" height="459.791" style="stroke:#181818;stroke-width:1;" width="10" x="311.8184" y="184.8828"/></g><g><title>FraudDetectionService</title><rect fill="#E1D5E7" height="403.5254" style="stroke:#181818;stroke-width:1;" width="10" x="504.4233" y="213.0156"/></g><g><title>CDI Event.AlertEvent.</title><rect fill="#D0E0E3" height="62.2656" style="stroke:#181818;stroke-width:1;" width="10" x="723.5581" y="468.5215"/></g><g><title>AlertListener</title><rect fill="#D0E0E3" height="34.1328" style="stroke:#181818;stroke-width:1;" width="10" x="894.3062" y="496.6543"/></g><rect fill="none" height="73.5762" rx="5" ry="5" style="stroke:#8E24AA;stroke-width:2;" width="597.0122" x="10" y="284.2813"/><g class="participant-lifeline" data-entity-uid="part1" data-qualified-name="Client" data-source-line="29" id="part1-lifeline"><g><title>Analyst . Client</title><rect fill="#000000" fill-opacity="0.00000" height="522.0566" width="8" x="71.7598" y="140.6172"/><line style="stroke:#3949AB;stroke-width:0.5;stroke-dasharray:5,5;" x1="75" x2="75" y1="140.6172" y2="662.6738"/></g></g><g class="participant-lifeline" data-entity-uid="part2" data-qualified-name="API" data-source-line="30" id="part2-lifeline"><g><title>FraudDetectionResource</title><rect fill="#000000" fill-opacity="0.00000" height="522.0566" width="8" x="312.8184" y="140.6172"/><line style="stroke:#3949AB;stroke-width:0.5;stroke-dasharray:5,5;" x1="316.8022" x2="316.8022" y1="140.6172" y2="662.6738"/></g></g><g class="participant-lifeline" data-entity-uid="part3" data-qualified-name="SVC" data-source-line="31" id="part3-lifeline"><g><title>FraudDetectionService</title><rect fill="#000000" fill-opacity="0.00000" height="522.0566" width="8" x="505.4233" y="140.6172"/><line style="stroke:#3949AB;stroke-width:0.5;stroke-dasharray:5,5;" x1="508.8345" x2="508.8345" y1="140.6172" y2="662.6738"/></g></g><g class="participant-lifeline" data-entity-uid="part4" data-qualified-name="EVT" data-source-line="32" id="part4-lifeline"><g><title>CDI Event.AlertEvent.</title><rect fill="#000000" fill-opacity="0.00000" height="522.0566" width="8" x="724.5581" y="140.6172"/><line style="stroke:#3949AB;stroke-width:0.5;stroke-dasharray:5,5;" x1="727.9204" x2="727.9204" y1="140.6172" y2="662.6738"/></g></g><g class="participant-lifeline" data-entity-uid="part5" data-qualified-name="LIS" data-source-line="33" id="part5-lifeline"><g><title>AlertListener</title><rect fill="#000000" fill-opacity="0.00000" height="522.0566" width="8" x="895.3062" y="140.6172"/><line style="stroke:#3949AB;stroke-width:0.5;stroke-dasharray:5,5;" x1="898.6304" x2="898.6304" y1="140.6172" y2="662.6738"/></g></g><g class="participant-lifeline" data-entity-uid="part6" data-qualified-name="DB" data-source-line="34" id="part6-lifeline"><g><title>PostgreSQL</title><rect fill="#000000" fill-opacity="0.00000" height="522.0566" width="8" x="1125.2651" y="140.6172"/><line style="stroke:#3949AB;stroke-width:0.5;stroke-dasharray:5,5;" x1="1128.9692" x2="1128.9692" y1="140.6172" y2="662.6738"/></g></g><g class="participant participant-head" data-entity-uid="part1" data-qualified-name="Client" data-source-line="29" id="part1-head"><text fill="#000000" font-family="sans-serif" font-size="14" lengthAdjust="spacing" textLength="105.5195" x="20" y="137.6641">Analyst / Client</text><ellipse cx="75.7598" cy="72.6289" fill="#ECEFF1" rx="8" ry="8" style="stroke:#181818;stroke-width:0.5;"/><path d="M75.7598,80.6289 L75.7598,107.6289 M62.7598,88.6289 L88.7598,88.6289 M75.7598,107.6289 L62.7598,122.6289 M75.7598,107.6289 L88.7598,122.6289" fill="none" style="stroke:#181818;stroke-width:0.5;"/></g><g class="participant participant-tail" data-entity-uid="part1" data-qualified-name="Client" data-source-line="29" id="part1-tail"><text fill="#000000" font-family="sans-serif" font-size="14" lengthAdjust="spacing" textLength="105.5195" x="20" y="675.209">Analyst / Client</text><ellipse cx="75.7598" cy="686.6621" fill="#ECEFF1" rx="8" ry="8" style="stroke:#181818;stroke-width:0.5;"/><path d="M75.7598,694.6621 L75.7598,721.6621 M62.7598,702.6621 L88.7598,702.6621 M75.7598,721.6621 L62.7598,736.6621 M75.7598,721.6621 L88.7598,736.6621" fill="none" style="stroke:#181818;stroke-width:0.5;"/></g><g class="participant participant-head" data-entity-uid="part2" data-qualified-name="API" data-source-line="30" id="part2-head"><rect fill="#DAE8FC" height="30.4883" rx="5" ry="5" style="stroke:#181818;stroke-width:2;" width="190.0322" x="221.8022" y="109.1289"/><text fill="#000000" font-family="sans-serif" font-size="14" font-weight="700" lengthAdjust="spacing" textLength="176.0322" x="228.8022" y="129.6641">FraudDetectionResource</text></g><g class="participant participant-tail" data-entity-uid="part2" data-qualified-name="API" data-source-line="30" id="part2-tail"><rect fill="#DAE8FC" height="30.4883" rx="5" ry="5" style="stroke:#181818;stroke-width:2;" width="190.0322" x="221.8022" y="661.6738"/><text fill="#000000" font-family="sans-serif" font-size="14" font-weight="700" lengthAdjust="spacing" textLength="176.0322" x="228.8022" y="682.209">FraudDetectionResource</text></g><g class="participant participant-head" data-entity-uid="part3" data-qualified-name="SVC" data-source-line="31" id="part3-head"><rect fill="#E1D5E7" height="30.4883" rx="5" ry="5" style="stroke:#181818;stroke-width:2;" width="175.1777" x="421.8345" y="109.1289"/><text fill="#000000" font-family="sans-serif" font-size="14" font-weight="700" lengthAdjust="spacing" textLength="161.1777" x="428.8345" y="129.6641">FraudDetectionService</text></g><g class="participant participant-tail" data-entity-uid="part3" data-qualified-name="SVC" data-source-line="31" id="part3-tail"><rect fill="#E1D5E7" height="30.4883" rx="5" ry="5" style="stroke:#181818;stroke-width:2;" width="175.1777" x="421.8345" y="661.6738"/><text fill="#000000" font-family="sans-serif" font-size="14" font-weight="700" lengthAdjust="spacing" textLength="161.1777" x="428.8345" y="682.209">FraudDetectionService</text></g><g class="participant participant-head" data-entity-uid="part4" data-qualified-name="EVT" data-source-line="32" id="part4-head"><rect fill="#D0E0E3" height="30.4883" rx="5" ry="5" style="stroke:#181818;stroke-width:2;" width="181.2754" x="637.9204" y="109.1289"/><text fill="#000000" font-family="sans-serif" font-size="14" font-weight="700" lengthAdjust="spacing" textLength="167.2754" x="644.9204" y="129.6641">CDI Event&lt;AlertEvent&gt;</text></g><g class="participant participant-tail" data-entity-uid="part4" data-qualified-name="EVT" data-source-line="32" id="part4-tail"><rect fill="#D0E0E3" height="30.4883" rx="5" ry="5" style="stroke:#181818;stroke-width:2;" width="181.2754" x="637.9204" y="661.6738"/><text fill="#000000" font-family="sans-serif" font-size="14" font-weight="700" lengthAdjust="spacing" textLength="167.2754" x="644.9204" y="682.209">CDI Event&lt;AlertEvent&gt;</text></g><g class="participant participant-head" data-entity-uid="part5" data-qualified-name="LIS" data-source-line="33" id="part5-head"><rect fill="#D0E0E3" height="30.4883" rx="5" ry="5" style="stroke:#181818;stroke-width:2;" width="107.3516" x="845.6304" y="109.1289"/><text fill="#000000" font-family="sans-serif" font-size="14" font-weight="700" lengthAdjust="spacing" textLength="93.3516" x="852.6304" y="129.6641">AlertListener</text></g><g class="participant participant-tail" data-entity-uid="part5" data-qualified-name="LIS" data-source-line="33" id="part5-tail"><rect fill="#D0E0E3" height="30.4883" rx="5" ry="5" style="stroke:#181818;stroke-width:2;" width="107.3516" x="845.6304" y="661.6738"/><text fill="#000000" font-family="sans-serif" font-size="14" font-weight="700" lengthAdjust="spacing" textLength="93.3516" x="852.6304" y="682.209">AlertListener</text></g><g class="participant participant-head" data-entity-uid="part6" data-qualified-name="DB" data-source-line="34" id="part6-head"><text fill="#000000" font-family="sans-serif" font-size="14" font-weight="700" lengthAdjust="spacing" textLength="82.5918" x="1084.9692" y="137.6641">PostgreSQL</text><path d="M1111.2651,88.1289 C1111.2651,78.1289 1129.2651,78.1289 1129.2651,78.1289 C1129.2651,78.1289 1147.2651,78.1289 1147.2651,88.1289 L1147.2651,114.1289 C1147.2651,124.1289 1129.2651,124.1289 1129.2651,124.1289 C1129.2651,124.1289 1111.2651,124.1289 1111.2651,114.1289 L1111.2651,88.1289" fill="#D5E8D4" style="stroke:#181818;stroke-width:2;"/><path d="M1111.2651,88.1289 C1111.2651,98.1289 1129.2651,98.1289 1129.2651,98.1289 C1129.2651,98.1289 1147.2651,98.1289 1147.2651,88.1289" fill="none" style="stroke:#181818;stroke-width:2;"/></g><g class="participant participant-tail" data-entity-uid="part6" data-qualified-name="DB" data-source-line="34" id="part6-tail"><text fill="#000000" font-family="sans-serif" font-size="14" font-weight="700" lengthAdjust="spacing" textLength="82.5918" x="1084.9692" y="675.209">PostgreSQL</text><path d="M1111.2651,688.1621 C1111.2651,678.1621 1129.2651,678.1621 1129.2651,678.1621 C1129.2651,678.1621 1147.2651,678.1621 1147.2651,688.1621 L1147.2651,714.1621 C1147.2651,724.1621 1129.2651,724.1621 1129.2651,724.1621 C1129.2651,724.1621 1111.2651,724.1621 1111.2651,714.1621 L1111.2651,688.1621" fill="#D5E8D4" style="stroke:#181818;stroke-width:2;"/><path d="M1111.2651,688.1621 C1111.2651,698.1621 1129.2651,698.1621 1129.2651,698.1621 C1129.2651,698.1621 1147.2651,698.1621 1147.2651,688.1621" fill="none" style="stroke:#181818;stroke-width:2;"/></g><g><title>FraudDetectionResource</title><rect fill="#DAE8FC" height="459.791" style="stroke:#181818;stroke-width:1;" width="10" x="311.8184" y="184.8828"/></g><g><title>FraudDetectionService</title><rect fill="#E1D5E7" height="403.5254" style="stroke:#181818;stroke-width:1;" width="10" x="504.4233" y="213.0156"/></g><g><title>CDI Event.AlertEvent.</title><rect fill="#D0E0E3" height="62.2656" style="stroke:#181818;stroke-width:1;" width="10" x="723.5581" y="468.5215"/></g><g><title>AlertListener</title><rect fill="#D0E0E3" height="34.1328" style="stroke:#181818;stroke-width:1;" width="10" x="894.3062" y="496.6543"/></g><g class="message" data-entity-1="part1" data-entity-2="part2" data-source-line="38" id="msg1"><polygon fill="#283593" points="299.8184,180.8828,309.8184,184.8828,299.8184,188.8828,303.8184,184.8828" style="stroke:#283593;stroke-width:1;stroke-linejoin:miter;stroke-miterlimit:10;"/><line style="stroke:#283593;stroke-width:1.8;" x1="75.7598" x2="305.8184" y1="184.8828" y2="184.8828"/><text fill="#000000" font-family="sans-serif" font-size="12" font-weight="700" lengthAdjust="spacing" textLength="10.8809" x="82.7598" y="173.2852">1.</text><text fill="#000000" font-family="sans-serif" font-size="12" lengthAdjust="spacing" textLength="202.1777" x="97.6406" y="166.2188">POST /fraud-detection/{ref}/notify</text><text fill="#000000" font-family="sans-serif" font-size="12" lengthAdjust="spacing" textLength="63.7852" x="97.6406" y="180.3516">{message?}</text></g><g class="message" data-entity-1="part2" data-entity-2="part3" data-source-line="40" id="msg2"><polygon fill="#283593" points="492.4233,209.0156,502.4233,213.0156,492.4233,217.0156,496.4233,213.0156" style="stroke:#283593;stroke-width:1;stroke-linejoin:miter;stroke-miterlimit:10;"/><line style="stroke:#283593;stroke-width:1.8;" x1="321.8184" x2="498.4233" y1="213.0156" y2="213.0156"/><text fill="#000000" font-family="sans-serif" font-size="12" font-weight="700" lengthAdjust="spacing" textLength="10.8809" x="328.8184" y="208.4844">2.</text><text fill="#000000" font-family="sans-serif" font-size="12" lengthAdjust="spacing" textLength="115.7813" x="343.6992" y="208.4844">notify(ref, message)</text></g><g class="message" data-entity-1="part3" data-entity-2="part6" data-source-line="42" id="msg3"><polygon fill="#283593" points="1117.2651,237.1484,1127.2651,241.1484,1117.2651,245.1484,1121.2651,241.1484" style="stroke:#283593;stroke-width:1;stroke-linejoin:miter;stroke-miterlimit:10;"/><line style="stroke:#283593;stroke-width:1.8;" x1="514.4233" x2="1123.2651" y1="241.1484" y2="241.1484"/><text fill="#000000" font-family="sans-serif" font-size="12" font-weight="700" lengthAdjust="spacing" textLength="10.8809" x="521.4233" y="236.6172">3.</text><text fill="#000000" font-family="sans-serif" font-size="12" lengthAdjust="spacing" textLength="117.1113" x="536.3042" y="236.6172">findByReference(ref)</text></g><g class="message" data-entity-1="part6" data-entity-2="part3" data-source-line="43" id="msg4"><polygon fill="#283593" points="525.4233,265.2813,515.4233,269.2813,525.4233,273.2813,521.4233,269.2813" style="stroke:#283593;stroke-width:1;stroke-linejoin:miter;stroke-miterlimit:10;"/><line style="stroke:#283593;stroke-width:1.8;stroke-dasharray:2,2;" x1="519.4233" x2="1128.2651" y1="269.2813" y2="269.2813"/><text fill="#000000" font-family="sans-serif" font-size="12" font-weight="700" lengthAdjust="spacing" textLength="10.8809" x="531.4233" y="264.75">4.</text><text fill="#000000" font-family="sans-serif" font-size="12" lengthAdjust="spacing" textLength="116.4844" x="546.3042" y="264.75">control record | null</text></g><path d="M15,284.2813 L72.1387,284.2813 L72.1387,291.5918 L62.1387,301.5918 L10,301.5918 L10,289.2813 A5,5 0 0 1 15,284.2813" fill="#F3E5F5" style="stroke:#8E24AA;stroke-width:1.5;"/><rect fill="none" height="73.5762" rx="5" ry="5" style="stroke:#8E24AA;stroke-width:2;" width="597.0122" x="10" y="284.2813"/><text fill="#000000" font-family="sans-serif" font-size="13" font-weight="700" lengthAdjust="spacing" textLength="17.1387" x="25" y="297.8496">alt</text><text fill="#000000" font-family="sans-serif" font-size="11" font-weight="700" lengthAdjust="spacing" textLength="114.0713" x="87.1387" y="296.916">[not found #FFEBEE]</text><g class="message" data-entity-1="part3" data-entity-2="part2" data-source-line="45" id="msg5"><polygon fill="#283593" points="332.8184,317.7246,322.8184,321.7246,332.8184,325.7246,328.8184,321.7246" style="stroke:#283593;stroke-width:1;stroke-linejoin:miter;stroke-miterlimit:10;"/><line style="stroke:#283593;stroke-width:1.8;stroke-dasharray:2,2;" x1="326.8184" x2="503.4233" y1="321.7246" y2="321.7246"/><text fill="#000000" font-family="sans-serif" font-size="12" font-weight="700" lengthAdjust="spacing" textLength="10.8809" x="338.8184" y="317.1934">5.</text><text fill="#000000" font-family="sans-serif" font-size="12" lengthAdjust="spacing" textLength="114" x="353.6992" y="317.1934">NotFoundException</text></g><g class="message" data-entity-1="part2" data-entity-2="part1" data-source-line="46" id="msg6"><polygon fill="#283593" points="86.7598,345.8574,76.7598,349.8574,86.7598,353.8574,82.7598,349.8574" style="stroke:#283593;stroke-width:1;stroke-linejoin:miter;stroke-miterlimit:10;"/><line style="stroke:#283593;stroke-width:1.8;stroke-dasharray:2,2;" x1="80.7598" x2="310.8184" y1="349.8574" y2="349.8574"/><text fill="#000000" font-family="sans-serif" font-size="12" font-weight="700" lengthAdjust="spacing" textLength="10.8809" x="92.7598" y="345.3262">6.</text><text fill="#000000" font-family="sans-serif" font-size="12" font-weight="700" lengthAdjust="spacing" textLength="23.748" x="107.6406" y="345.3262">404</text></g><g class="message" data-entity-1="part3" data-entity-2="part3" data-source-line="48" id="msg7"><line style="stroke:#283593;stroke-width:1.8;" x1="514.4233" x2="556.4233" y1="399.123" y2="399.123"/><line style="stroke:#283593;stroke-width:1.8;" x1="556.4233" x2="556.4233" y1="399.123" y2="412.123"/><line style="stroke:#283593;stroke-width:1.8;" x1="515.4233" x2="556.4233" y1="412.123" y2="412.123"/><polygon fill="#283593" points="525.4233,408.123,515.4233,412.123,525.4233,416.123,521.4233,412.123" style="stroke:#283593;stroke-width:1;stroke-linejoin:miter;stroke-miterlimit:10;"/><text fill="#000000" font-family="sans-serif" font-size="12" font-weight="700" lengthAdjust="spacing" textLength="10.8809" x="521.4233" y="387.5254">7.</text><text fill="#000000" font-family="sans-serif" font-size="12" lengthAdjust="spacing" textLength="84.2051" x="536.3042" y="380.459">build message</text><text fill="#000000" font-family="sans-serif" font-size="12" lengthAdjust="spacing" textLength="96.0703" x="536.3042" y="394.5918">(default if blank)</text></g><g class="message" data-entity-1="part3" data-entity-2="part4" data-source-line="49" id="msg8"><polygon fill="#283593" points="711.5581,464.5215,721.5581,468.5215,711.5581,472.5215,715.5581,468.5215" style="stroke:#283593;stroke-width:1;stroke-linejoin:miter;stroke-miterlimit:10;"/><line style="stroke:#283593;stroke-width:1.8;" x1="514.4233" x2="717.5581" y1="468.5215" y2="468.5215"/><text fill="#000000" font-family="sans-serif" font-size="12" font-weight="700" lengthAdjust="spacing" textLength="10.8809" x="521.4233" y="449.8574">8.</text><text fill="#000000" font-family="sans-serif" font-size="12" lengthAdjust="spacing" textLength="82.5469" x="536.3042" y="435.7246">fire(AlertEvent</text><text fill="#000000" font-family="sans-serif" font-size="12" lengthAdjust="spacing" textLength="157.0195" x="536.3042" y="449.8574">{referenceId, transactionId,</text><text fill="#000000" font-family="sans-serif" font-size="12" lengthAdjust="spacing" textLength="175.2539" x="536.3042" y="463.9902">decision, riskScore, message})</text></g><g class="message" data-entity-1="part4" data-entity-2="part5" data-source-line="51" id="msg9"><polygon fill="#283593" points="882.3062,492.6543,892.3062,496.6543,882.3062,500.6543,886.3062,496.6543" style="stroke:#283593;stroke-width:1;stroke-linejoin:miter;stroke-miterlimit:10;"/><line style="stroke:#283593;stroke-width:1.8;" x1="733.5581" x2="888.3062" y1="496.6543" y2="496.6543"/><text fill="#000000" font-family="sans-serif" font-size="12" font-weight="700" lengthAdjust="spacing" textLength="10.8809" x="740.5581" y="492.123">9.</text><text fill="#000000" font-family="sans-serif" font-size="12" lengthAdjust="spacing" textLength="126.8672" x="755.439" y="492.123">@Observes AlertEvent</text></g><g class="message" data-entity-1="part5" data-entity-2="part5" data-source-line="53" id="msg10"><line style="stroke:#283593;stroke-width:1.8;" x1="904.3062" x2="946.3062" y1="529.7871" y2="529.7871"/><line style="stroke:#283593;stroke-width:1.8;" x1="946.3062" x2="946.3062" y1="529.7871" y2="542.7871"/><line style="stroke:#283593;stroke-width:1.8;" x1="899.3062" x2="946.3062" y1="542.7871" y2="542.7871"/><polygon fill="#283593" points="909.3062,538.7871,899.3062,542.7871,909.3062,546.7871,905.3062,542.7871" style="stroke:#283593;stroke-width:1;stroke-linejoin:miter;stroke-miterlimit:10;"/><text fill="#000000" font-family="sans-serif" font-size="12" font-weight="700" lengthAdjust="spacing" textLength="18.7969" x="911.3062" y="525.2559">10.</text><text fill="#000000" font-family="sans-serif" font-size="12" lengthAdjust="spacing" textLength="173.1621" x="934.103" y="525.2559">Log.warnf("FRAUD-ALERT &#8230;")</text></g><path d="M904,555.7871 L904,585.7871 A5,5 0 0 0 909,590.7871 L1222,590.7871 A5,5 0 0 0 1227,585.7871 L1227,560.7871 L1217,550.7871 L909,550.7871 A5,5 0 0 0 904,555.7871" fill="#E1F5FE" style="stroke:#181818;stroke-width:0.5;"/><path d="M1217,550.7871 L1217,558.2871 A2.5,2.5 0 0 0 1219.5,560.7871 L1227,560.7871 L1217,550.7871" fill="#E1F5FE" style="stroke:#181818;stroke-width:0.5;"/><text fill="#000000" font-family="sans-serif" font-size="13" lengthAdjust="spacing" textLength="245.9272" x="910" y="568.3555">Logging today; same event is the seam</text><text fill="#000000" font-family="sans-serif" font-size="13" lengthAdjust="spacing" textLength="302.8403" x="910" y="583.666">for Kafka / email / a case-management system.</text><g class="message" data-entity-1="part3" data-entity-2="part2" data-source-line="60" id="msg11"><polygon fill="#283593" points="332.8184,612.541,322.8184,616.541,332.8184,620.541,328.8184,616.541" style="stroke:#283593;stroke-width:1;stroke-linejoin:miter;stroke-miterlimit:10;"/><line style="stroke:#283593;stroke-width:1.8;stroke-dasharray:2,2;" x1="326.8184" x2="508.4233" y1="616.541" y2="616.541"/><text fill="#000000" font-family="sans-serif" font-size="12" font-weight="700" lengthAdjust="spacing" textLength="18.7969" x="338.8184" y="612.0098">11.</text><text fill="#000000" font-family="sans-serif" font-size="12" lengthAdjust="spacing" textLength="82.5762" x="361.6152" y="612.0098">control record</text></g><g class="message" data-entity-1="part2" data-entity-2="part1" data-source-line="62" id="msg12"><polygon fill="#283593" points="86.7598,640.6738,76.7598,644.6738,86.7598,648.6738,82.7598,644.6738" style="stroke:#283593;stroke-width:1;stroke-linejoin:miter;stroke-miterlimit:10;"/><line style="stroke:#283593;stroke-width:1.8;stroke-dasharray:2,2;" x1="80.7598" x2="315.8184" y1="644.6738" y2="644.6738"/><text fill="#000000" font-family="sans-serif" font-size="12" font-weight="700" lengthAdjust="spacing" textLength="18.7969" x="92.7598" y="640.1426">12.</text><text fill="#000000" font-family="sans-serif" font-size="12" font-weight="700" lengthAdjust="spacing" textLength="23.748" x="115.5566" y="640.1426">200</text><text fill="#000000" font-family="sans-serif" font-size="12" lengthAdjust="spacing" textLength="90.3809" x="143.1016" y="640.1426">{control record}</text></g><?plantuml-src ZLNDSjis4BxpANRaYpsr_gLMLZrkAObiFTKqYkNcv0j4B6cCG405GBkAevayH9wX3zOdoOAMAAh9f3q9nEwtsFtssvKJJY9ShsuMRvRtq4uDAtYJeyF42QtQBmRJNLjf9zBjTNjr0_zy_0IO2mVVWTGPC0LCed60JwXS4DYrK1jcM0xsaN7zB5G6APCMQnQZ2yMdsYWqqEtK35AaA8N2fJFCORO5gwNWDOS5CquaOiEKMp3EVV1-FO35FmjK2S9B010Qev-dMce3PxrHVtZLFrpUFufahT1QwBP6XyjOAxSKxn6wFRgQKofpIcMY3KUpZzA_6bo5ao-int2zrf2ilr21cnFWAEeDml3KL4DL1fQiipqx9IxkHyEu2lahCiALURejDMsb9IVRJ3m9kly278sYCFx-wF0luAx6s-R8QqdTrpBy1fmpnrRCul_71Ynnb6CZL4nkhOCsJAKW0JM0sVsH2fX6STmDwiarOg_FsK6UTsXrOH8iOU7Y5iuumr6QV0kpHFCazf3bkocSOPSFyOTJo7Hs2v5Nz7NerLqURqf8zEwUNkbW1_kdaD9nBgn3qdNfEhzTLguLHOs5jYupk7mxBvrc4_8PueWFY9J2QLNaAvgB1arafzK8WZqPpPkolZ7yzvW-g9USY6SP_hJpF8id6gOJTloP0lhgn_0AEgS0bx37NHnXTORycM2KyHXIeVXaUuSf6Zzm7duHaALPnKsevqPBC9YG8k03g4BAW4ddNuJK2vK47aUJA2A5bB6h8d_NBlOEqLy9Rdo1VaXzqkIn9sJiTzQWC_1BAK353zczFhugXEI7SXxKESUK5VIqI64bcLfV7DnzEtqr1i-FdIO6pQ6oMtu9j8wKPINJzFcWE2R2qiSb667NIweFA-vsDVBgMl5dUizhOWm_lrbPaY6IQAj7Zx2wRlovWirrrdfcHgNdZVWk_6FM3EVHtJsjvByR5m6nYfHFzkX0fwynecuyZ3sx1CpyidIQi-sFO5cEhmiRX0NtYBGuMKv-AStaRonTCnf8p9cGzCiW8TqsSwQekjnZB4qivYtFkkyb1XphkTS_gUhWjBMdigZxab_mjIRtEftod-Vb5BghOmdt6G00?></g></svg>