<svg xmlns="http://www.w3.org/2000/svg" xmlns:xlink="http://www.w3.org/1999/xlink" contentStyleType="text/css" data-diagram-type="DESCRIPTION" height="1108px" preserveAspectRatio="none" style="width:1430px;height:1108px;background:#FFFFFF;" version="1.1" viewBox="0 0 1430 1108" width="1430px" zoomAndPan="magnify"><?plantuml 1.2026.6?><defs/><g><g class="title" data-source-line="1"><text fill="#000000" font-family="Helvetica" font-size="14" font-weight="700" lengthAdjust="spacing" textLength="357.8613" x="532.5693" y="20.7803">BIAN Fraud Detection &#8212; Service Domain Architecture</text></g><!--cluster REST--><g class="cluster" data-qualified-name="REST" data-source-line="23" id="ent0002"><rect fill="#DAE8FC" height="294" rx="6" ry="6" style="stroke:#181818;stroke-width:2;" width="354" x="7" y="189.5"/><text fill="#000000" font-family="Helvetica" font-size="14" font-weight="700" lengthAdjust="spacing" textLength="87.9307" x="140.0347" y="202.2803">JAX-RS layer</text></g><!--cluster DOMAIN--><g class="cluster" data-qualified-name="DOMAIN" data-source-line="28" id="ent0005"><rect fill="#E1D5E7" height="303" rx="6" ry="6" style="stroke:#181818;stroke-width:2;" width="342" x="385" y="355.5"/><text fill="#000000" font-family="Helvetica" font-size="14" font-weight="700" lengthAdjust="spacing" textLength="152.4688" x="479.7656" y="368.2803">Domain / orchestration</text></g><!--cluster AI--><g class="cluster" data-qualified-name="AI" data-source-line="33" id="ent0008"><rect fill="#F3E0F7" height="121" rx="6" ry="6" style="stroke:#181818;stroke-width:2;" width="206" x="428" y="712.5"/><text fill="#000000" font-family="Helvetica" font-size="14" font-weight="700" lengthAdjust="spacing" textLength="147.8066" x="457.0967" y="725.2803">AI layer (LangChain4j)</text></g><!--cluster EVT--><g class="cluster" data-qualified-name="EVT" data-source-line="37" id="ent0010"><rect fill="#D0E0E3" height="121" rx="6" ry="6" style="stroke:#181818;stroke-width:2;" width="242" x="910" y="537.5"/><text fill="#000000" font-family="Helvetica" font-size="14" font-weight="700" lengthAdjust="spacing" textLength="59.1172" x="1001.4414" y="550.2803">Eventing</text></g><!--cluster LOAD--><g class="cluster" data-qualified-name="LOAD" data-source-line="41" id="ent0012"><rect fill="#D0E0E3" height="135" rx="6" ry="6" style="stroke:#181818;stroke-width:2;" width="240" x="1176" y="530.5"/><text fill="#000000" font-family="Helvetica" font-size="14" font-weight="700" lengthAdjust="spacing" textLength="84.0068" x="1253.9966" y="543.2803">Data loading</text></g><!--entity API--><g class="entity" data-qualified-name="REST.API" data-source-line="24" id="ent0003"><rect fill="#DAE8FC" height="72" rx="6" ry="6" style="stroke:#181818;stroke-width:2;" width="322.4131" x="22.79" y="222.5"/><rect fill="#DAE8FC" height="10" style="stroke:#181818;stroke-width:2;" width="15" x="325.2031" y="227.5"/><rect fill="#DAE8FC" height="2" style="stroke:#181818;stroke-width:2;" width="4" x="323.2031" y="229.5"/><rect fill="#DAE8FC" height="2" style="stroke:#181818;stroke-width:2;" width="4" x="323.2031" y="233.5"/><text fill="#000000" font-family="Helvetica" font-size="14" font-weight="700" lengthAdjust="spacing" textLength="166.4824" x="37.79" y="253.2803">FraudDetectionResource</text><text fill="#000000" font-family="Helvetica" font-size="14" font-weight="700" lengthAdjust="spacing" textLength="156.3516" x="37.79" y="267.2803">/fraud-detection/{ref}/&#8230;</text><text fill="#000000" font-family="Helvetica" font-size="14" font-weight="700" lengthAdjust="spacing" textLength="282.4131" x="37.79" y="281.2803">initiate &#183; evaluate &#183; retrieve &#183; update &#183; notify</text></g><!--entity LOG--><g class="entity" data-qualified-name="REST.LOG" data-source-line="25" id="ent0004"><rect fill="#CFE2F3" height="86" rx="6" ry="6" style="stroke:#181818;stroke-width:2;" width="308.3174" x="29.84" y="381.5"/><rect fill="#CFE2F3" height="10" style="stroke:#181818;stroke-width:2;" width="15" x="318.1574" y="386.5"/><rect fill="#CFE2F3" height="2" style="stroke:#181818;stroke-width:2;" width="4" x="316.1574" y="388.5"/><rect fill="#CFE2F3" height="2" style="stroke:#181818;stroke-width:2;" width="4" x="316.1574" y="392.5"/><text fill="#000000" font-family="Helvetica" font-size="14" font-weight="700" lengthAdjust="spacing" textLength="117.4141" x="44.84" y="412.2803">HttpLoggingFilter</text><text fill="#000000" font-family="Helvetica" font-size="14" font-weight="700" lengthAdjust="spacing" textLength="245.793" x="44.84" y="426.2803">correlationId &#183; MDC &#183; X-Correlation-Id</text><text fill="#000000" font-family="Helvetica" font-size="14" font-weight="700" lengthAdjust="spacing" textLength="268.3174" x="44.84" y="440.2803">body truncation (app.logging.max-body)</text><text fill="#000000" font-family="Helvetica" font-size="14" font-weight="700" lengthAdjust="spacing" textLength="130.6758" x="44.84" y="454.2803">[hook] PII redaction</text></g><!--entity SVC--><g class="entity" data-qualified-name="DOMAIN.SVC" data-source-line="29" id="ent0006"><rect fill="#E1D5E7" height="72" rx="6" ry="6" style="stroke:#181818;stroke-width:2;" width="309.9102" x="401.04" y="388.5"/><rect fill="#E1D5E7" height="10" style="stroke:#181818;stroke-width:2;" width="15" x="690.9502" y="393.5"/><rect fill="#E1D5E7" height="2" style="stroke:#181818;stroke-width:2;" width="4" x="688.9502" y="395.5"/><rect fill="#E1D5E7" height="2" style="stroke:#181818;stroke-width:2;" width="4" x="688.9502" y="399.5"/><text fill="#000000" font-family="Helvetica" font-size="14" font-weight="700" lengthAdjust="spacing" textLength="152.4961" x="416.04" y="419.2803">FraudDetectionService</text><text fill="#000000" font-family="Helvetica" font-size="14" font-weight="700" lengthAdjust="spacing" textLength="163.8301" x="416.04" y="433.2803">@Transactional lifecycle</text><text fill="#000000" font-family="Helvetica" font-size="14" font-weight="700" lengthAdjust="spacing" textLength="269.9102" x="416.04" y="447.2803">INITIATED &#8594; EVALUATED &#8594; DISPOSED</text></g><!--entity TRIAGE--><g class="entity" data-qualified-name="DOMAIN.TRIAGE" data-source-line="30" id="ent0007"><rect fill="#F3E0F7" height="72" rx="6" ry="6" style="stroke:#181818;stroke-width:2;" width="259.4131" x="401.29" y="570.5"/><rect fill="#F3E0F7" height="10" style="stroke:#181818;stroke-width:2;" width="15" x="640.7031" y="575.5"/><rect fill="#F3E0F7" height="2" style="stroke:#181818;stroke-width:2;" width="4" x="638.7031" y="577.5"/><rect fill="#F3E0F7" height="2" style="stroke:#181818;stroke-width:2;" width="4" x="638.7031" y="581.5"/><text fill="#000000" font-family="Helvetica" font-size="14" font-weight="700" lengthAdjust="spacing" textLength="130.7236" x="416.29" y="601.2803">FraudTriageService</text><text fill="#000000" font-family="Helvetica" font-size="14" font-weight="700" lengthAdjust="spacing" textLength="219.4131" x="416.29" y="615.2803">safe JSON parse &#8594; FraudVerdict</text><text fill="#000000" font-family="Helvetica" font-size="14" font-weight="700" lengthAdjust="spacing" textLength="128.7945" x="416.29" y="629.2803">fallback &#8658; REVIEW</text></g><!--entity AGENT--><g class="entity" data-qualified-name="AI.AGENT" data-source-line="34" id="ent0009"><rect fill="#F3E0F7" height="72" rx="6" ry="6" style="stroke:#181818;stroke-width:2;" width="173.4922" x="444.25" y="745.5"/><rect fill="#F3E0F7" height="10" style="stroke:#181818;stroke-width:2;" width="15" x="597.7422" y="750.5"/><rect fill="#F3E0F7" height="2" style="stroke:#181818;stroke-width:2;" width="4" x="595.7422" y="752.5"/><rect fill="#F3E0F7" height="2" style="stroke:#181818;stroke-width:2;" width="4" x="595.7422" y="756.5"/><text fill="#000000" font-family="Helvetica" font-size="14" font-weight="700" lengthAdjust="spacing" textLength="120.5654" x="459.25" y="776.2803">FraudTriageAgent</text><text fill="#000000" font-family="Helvetica" font-size="14" font-weight="700" lengthAdjust="spacing" textLength="133.4922" x="459.25" y="790.2803">@RegisterAiService</text><text fill="#000000" font-family="Helvetica" font-size="14" font-weight="700" lengthAdjust="spacing" textLength="120.5586" x="459.25" y="804.2803">String triage(json)</text></g><!--entity ALERT--><g class="entity" data-qualified-name="EVT.ALERT" data-source-line="38" id="ent0011"><rect fill="#D0E0E3" height="72" rx="6" ry="6" style="stroke:#181818;stroke-width:2;" width="210.4404" x="925.78" y="570.5"/><rect fill="#D0E0E3" height="10" style="stroke:#181818;stroke-width:2;" width="15" x="1116.2204" y="575.5"/><rect fill="#D0E0E3" height="2" style="stroke:#181818;stroke-width:2;" width="4" x="1114.2204" y="577.5"/><rect fill="#D0E0E3" height="2" style="stroke:#181818;stroke-width:2;" width="4" x="1114.2204" y="581.5"/><text fill="#000000" font-family="Helvetica" font-size="14" font-weight="700" lengthAdjust="spacing" textLength="107.3447" x="940.78" y="601.2803">AlertEvent (CDI)</text><text fill="#000000" font-family="Helvetica" font-size="14" font-weight="700" lengthAdjust="spacing" textLength="146.2412" x="940.78" y="615.2803">&#8594; AlertListener (logs;</text><text fill="#000000" font-family="Helvetica" font-size="14" font-weight="700" lengthAdjust="spacing" textLength="170.4404" x="940.78" y="629.2803">Kafka/case-system seam)</text></g><!--entity LOADER--><g class="entity" data-qualified-name="LOAD.LOADER" data-source-line="42" id="ent0013"><rect fill="#D0E0E3" height="86" rx="6" ry="6" style="stroke:#181818;stroke-width:2;" width="208.4854" x="1191.76" y="563.5"/><rect fill="#D0E0E3" height="10" style="stroke:#181818;stroke-width:2;" width="15" x="1380.2454" y="568.5"/><rect fill="#D0E0E3" height="2" style="stroke:#181818;stroke-width:2;" width="4" x="1378.2454" y="570.5"/><rect fill="#D0E0E3" height="2" style="stroke:#181818;stroke-width:2;" width="4" x="1378.2454" y="574.5"/><text fill="#000000" font-family="Helvetica" font-size="14" font-weight="700" lengthAdjust="spacing" textLength="77.0205" x="1206.76" y="594.2803">DataLoader</text><text fill="#000000" font-family="Helvetica" font-size="14" font-weight="700" lengthAdjust="spacing" textLength="168.4854" x="1206.76" y="608.2803">@Observes StartupEvent</text><text fill="#000000" font-family="Helvetica" font-size="14" font-weight="700" lengthAdjust="spacing" textLength="154.8203" x="1206.76" y="622.2803">PaySim CSV &#8594; staging</text><text fill="#000000" font-family="Helvetica" font-size="14" font-weight="700" lengthAdjust="spacing" textLength="156.3721" x="1206.76" y="636.2803">(app.dataset.max-rows)</text></g><!--entity Client--><g class="entity" data-qualified-name="Client" data-source-line="21" id="ent0001"><ellipse cx="184.0047" cy="49" fill="#ECEFF1" rx="8" ry="8" style="stroke:#181818;stroke-width:0.5;"/><path d="M184.0047,57 L184.0047,84 M171.0047,65 L197.0047,65 M184.0047,84 L171.0047,99 M184.0047,84 L197.0047,99" fill="none" style="stroke:#181818;stroke-width:0.5;"/><text fill="#000000" font-family="Helvetica" font-size="14" lengthAdjust="spacing" textLength="53.6895" x="157.16" y="111.2803">Analyst /</text><text fill="#000000" font-family="Helvetica" font-size="14" lengthAdjust="spacing" textLength="35.793" x="157.16" y="125.2803">Client</text></g><!--entity DB--><g class="entity" data-qualified-name="DB" data-source-line="45" id="ent0014"><path d="M652.36,749 C652.36,739 781.0045,739 781.0045,739 C781.0045,739 909.6491,739 909.6491,749 L909.6491,814 C909.6491,824 781.0045,824 781.0045,824 C781.0045,824 652.36,824 652.36,814 L652.36,749" fill="#D5E8D4" style="stroke:#181818;stroke-width:2;"/><path d="M652.36,749 C652.36,759 781.0045,759 781.0045,759 C781.0045,759 909.6491,759 909.6491,749" fill="none" style="stroke:#181818;stroke-width:2;"/><text fill="#000000" font-family="Helvetica" font-size="14" font-weight="700" lengthAdjust="spacing" textLength="80.9033" x="662.36" y="773.7803">PostgreSQL</text><text fill="#000000" font-family="Helvetica" font-size="14" font-weight="700" lengthAdjust="spacing" textLength="227.9307" x="662.36" y="787.7803">fraud_evaluation (control records)</text><text fill="#000000" font-family="Helvetica" font-size="14" font-weight="700" lengthAdjust="spacing" textLength="237.2891" x="662.36" y="801.7803">fraud_txn_sample (PaySim staging)</text><text fill="#000000" font-family="Helvetica" font-size="14" font-weight="700" lengthAdjust="spacing" textLength="128.3857" x="662.36" y="815.7803">Flyway V1__init.sql</text></g><!--entity LLM--><g class="entity" data-qualified-name="LLM" data-source-line="46" id="ent0015"><rect fill="#FFE6CC" height="72" rx="6" ry="6" style="stroke:#181818;stroke-width:2;" width="157.4756" x="577.26" y="899"/><rect fill="#FFE6CC" height="10" style="stroke:#181818;stroke-width:2;" width="15" x="714.7356" y="904"/><rect fill="#FFE6CC" height="2" style="stroke:#181818;stroke-width:2;" width="4" x="712.7356" y="906"/><rect fill="#FFE6CC" height="2" style="stroke:#181818;stroke-width:2;" width="4" x="712.7356" y="910"/><text fill="#000000" font-family="Helvetica" font-size="14" font-weight="700" lengthAdjust="spacing" textLength="99.5654" x="592.26" y="929.7803">Google Gemini</text><text fill="#000000" font-family="Helvetica" font-size="14" font-weight="700" lengthAdjust="spacing" textLength="106.5791" x="592.26" y="943.7803">gemini-2.0-flash</text><text fill="#000000" font-family="Helvetica" font-size="14" font-weight="700" lengthAdjust="spacing" textLength="117.4756" x="592.26" y="957.7803">GEMINI_API_KEY</text></g><!--entity CSV--><g class="entity" data-qualified-name="CSV" data-source-line="47" id="ent0016"><path d="M1208.57,763.5 L1208.57,799.5 A6,6 0 0 0 1214.57,805.5 L1377.4245,805.5 A6,6 0 0 0 1383.4245,799.5 L1383.4245,767.5 L1373.4245,757.5 L1214.57,757.5 A6,6 0 0 0 1208.57,763.5" fill="#FFE6CC" style="stroke:#181818;stroke-width:0.5;"/><path d="M1373.4245,757.5 L1373.4245,761.5 A6,6 0 0 0 1379.4245,767.5 L1383.4245,767.5" fill="#FFE6CC" style="stroke:#181818;stroke-width:0.5;"/><text fill="#000000" font-family="Helvetica" font-size="14" lengthAdjust="spacing" textLength="69.2549" x="1218.57" y="778.2803">./data/*.csv</text><text fill="#000000" font-family="Helvetica" font-size="14" lengthAdjust="spacing" textLength="154.8545" x="1218.57" y="792.2803">PaySim dataset (Kaggle)</text></g><!--link Client to API--><g class="link" data-entity-1="ent0001" data-entity-2="ent0003" data-link-type="dependency" data-source-line="49" id="lnk17"><path d="M184,128.9 C184,157.76 184,190.19 184,217.21" fill="none" id="Client-to-API" style="stroke:#283593;stroke-width:1.6;"/><polygon fill="#283593" points="184,222.21,188,213.21,184,217.21,180,213.21,184,222.21" style="stroke:#283593;stroke-width:1.6;stroke-linejoin:miter;stroke-miterlimit:10;"/><text fill="#000000" font-family="Helvetica" font-size="13" lengthAdjust="spacing" textLength="89.5527" x="185" y="169.5103">HTTPS (JSON)</text></g><!--link API to LOG--><g class="link" data-entity-1="ent0003" data-entity-2="ent0004" data-link-type="dependency" data-source-line="50" id="lnk18"><path d="M184,294.68 C184,320 184,349.27 184,376.1" fill="none" id="API-to-LOG" style="stroke:#283593;stroke-width:1.6;stroke-dasharray:7,7;"/><polygon fill="#283593" points="184,381.1,188,372.1,184,376.1,180,372.1,184,381.1" style="stroke:#283593;stroke-width:1.6;stroke-linejoin:miter;stroke-miterlimit:10;"/><text fill="#000000" font-family="Helvetica" font-size="13" lengthAdjust="spacing" textLength="89.5972" x="185" y="335.5103">&#171;provider filter&#187;</text></g><!--link API to SVC--><g class="link" data-entity-1="ent0003" data-entity-2="ent0006" data-link-type="dependency" data-source-line="51" id="lnk19"><path d="M264.26,294.88 C326.74,322.43 408.4648,358.4632 470.9848,386.0232" fill="none" id="API-to-SVC" style="stroke:#283593;stroke-width:1.6;"/><polygon fill="#283593" points="475.56,388.04,468.9381,380.7495,470.9848,386.0232,465.7112,388.0699,475.56,388.04" style="stroke:#283593;stroke-width:1.6;stroke-linejoin:miter;stroke-miterlimit:10;"/></g><!--link SVC to TRIAGE--><g class="link" data-entity-1="ent0006" data-entity-2="ent0007" data-link-type="dependency" data-source-line="52" id="lnk20"><path d="M551.12,460.63 C546.73,492.25 540.9978,533.5175 536.5978,565.1975" fill="none" id="SVC-to-TRIAGE" style="stroke:#283593;stroke-width:1.6;"/><polygon fill="#283593" points="535.91,570.15,541.1101,561.7858,536.5978,565.1975,533.1861,560.6853,535.91,570.15" style="stroke:#283593;stroke-width:1.6;stroke-linejoin:miter;stroke-miterlimit:10;"/><text fill="#000000" font-family="Helvetica" font-size="13" lengthAdjust="spacing" textLength="49.1499" x="546" y="510.5103">evaluate</text></g><!--link TRIAGE to AGENT--><g class="link" data-entity-1="ent0007" data-entity-2="ent0009" data-link-type="dependency" data-source-line="53" id="lnk21"><path d="M531,642.93 C531,672.78 531,710.28 531,740.12" fill="none" id="TRIAGE-to-AGENT" style="stroke:#283593;stroke-width:1.6;"/><polygon fill="#283593" points="531,745.12,535,736.12,531,740.12,527,736.12,531,745.12" style="stroke:#283593;stroke-width:1.6;stroke-linejoin:miter;stroke-miterlimit:10;"/></g><!--link AGENT to LLM--><g class="link" data-entity-1="ent0009" data-entity-2="ent0015" data-link-type="dependency" data-source-line="54" id="lnk22"><path d="M559.99,817.64 C580.04,841.94 603.4376,870.3035 623.5476,894.6735" fill="none" id="AGENT-to-LLM" style="stroke:#283593;stroke-width:1.6;"/><polygon fill="#283593" points="626.73,898.53,624.0869,889.0424,623.5476,894.6735,617.9166,894.1342,626.73,898.53" style="stroke:#283593;stroke-width:1.6;stroke-linejoin:miter;stroke-miterlimit:10;"/><text fill="#000000" font-family="Helvetica" font-size="13" lengthAdjust="spacing" textLength="91.0508" x="601.98" y="865.0103">chat completion</text></g><!--link SVC to ALERT--><g class="link" data-entity-1="ent0006" data-entity-2="ent0011" data-link-type="dependency" data-source-line="55" id="lnk23"><path d="M711.26,459.37 C771.26,475.03 839.63,496.1 899,522.5 C927.94,535.37 953.853,551.0167 977.963,567.2567" fill="none" id="SVC-to-ALERT" style="stroke:#283593;stroke-width:1.6;"/><polygon fill="#283593" points="982.11,570.05,976.8801,561.7045,977.963,567.2567,972.4108,568.3396,982.11,570.05" style="stroke:#283593;stroke-width:1.6;stroke-linejoin:miter;stroke-miterlimit:10;"/><text fill="#000000" font-family="Helvetica" font-size="13" lengthAdjust="spacing" textLength="94.6563" x="873.42" y="510.5103">notify fires event</text></g><!--link SVC to DB--><g class="link" data-entity-1="ent0006" data-entity-2="ent0014" data-link-type="dependency" data-source-line="56" id="lnk24"><path d="M612.45,460.86 C635.21,477.35 660.24,498.62 678,522.5 C704.41,558.01 744.2857,670.431 765.6557,733.951" fill="none" id="SVC-to-DB" style="stroke:#283593;stroke-width:1.6;"/><polygon fill="#283593" points="767.25,738.69,768.1714,728.8843,765.6557,733.951,760.589,731.4353,767.25,738.69" style="stroke:#283593;stroke-width:1.6;stroke-linejoin:miter;stroke-miterlimit:10;"/><text fill="#000000" font-family="Helvetica" font-size="13" lengthAdjust="spacing" textLength="158.2598" x="744.31" y="610.0103">Panache (FraudEvaluation)</text></g><!--link LOADER to CSV--><g class="link" data-entity-1="ent0013" data-entity-2="ent0016" data-link-type="dependency" data-source-line="57" id="lnk25"><path d="M1296,649.82 C1296,683.63 1296,724.75 1296,752.2" fill="none" id="LOADER-to-CSV" style="stroke:#283593;stroke-width:1.6;"/><polygon fill="#283593" points="1296,757.2,1300,748.2,1296,752.2,1292,748.2,1296,757.2" style="stroke:#283593;stroke-width:1.6;stroke-linejoin:miter;stroke-miterlimit:10;"/><text fill="#000000" font-family="Helvetica" font-size="13" lengthAdjust="spacing" textLength="94.6309" x="1297" y="692.5103">read first N rows</text></g><!--link LOADER to DB--><g class="link" data-entity-1="ent0013" data-entity-2="ent0014" data-link-type="dependency" data-source-line="58" id="lnk26"><path d="M1208.92,649.93 C1190.35,658.26 1170.69,666.56 1152,673.5 C1072.97,702.82 986.8914,727.8725 914.8414,747.0725" fill="none" id="LOADER-to-DB" style="stroke:#283593;stroke-width:1.6;"/><polygon fill="#283593" points="910.01,748.36,919.7365,749.9077,914.8414,747.0725,917.6765,742.1774,910.01,748.36" style="stroke:#283593;stroke-width:1.6;stroke-linejoin:miter;stroke-miterlimit:10;"/><text fill="#000000" font-family="Helvetica" font-size="13" lengthAdjust="spacing" textLength="104.7617" x="1123.56" y="692.5103">JDBC batch insert</text></g><!--reverse link DB to LLM--><g class="link" data-entity-1="ent0014" data-entity-2="ent0015" data-link-type="dependency" data-source-line="59" id="lnk27"><path d="M743.3284,828.1571 C723.9684,851.6271 703.25,876.73 684.88,899" fill="none" id="DB-backto-LLM" style="stroke:#283593;stroke-width:1.6;stroke-dasharray:7,7;"/><polygon fill="#283593" points="746.51,824.3,737.6974,828.6974,743.3284,828.1571,743.8687,833.7881,746.51,824.3" style="stroke:#283593;stroke-width:1.6;stroke-linejoin:miter;stroke-miterlimit:10;"/></g><g class="legend" data-source-line="61"><rect fill="#DDDDDD" height="98" rx="6" ry="6" style="stroke:#000000;stroke-width:1;" width="184.2891" x="1226.7109" y="991"/><rect fill="#DAE8FC" height="14" style="stroke:none;stroke-width:1;" width="3.8896" x="1231.7109" y="998"/><text fill="#000000" font-family="Helvetica" font-size="14" lengthAdjust="spacing" textLength="3.8896" x="1231.7109" y="1008.7803">&#160;</text><text fill="#000000" font-family="Helvetica" font-size="14" lengthAdjust="spacing" textLength="71.5723" x="1239.4902" y="1008.7803">REST / API</text><rect fill="#E1D5E7" height="14" style="stroke:none;stroke-width:1;" width="3.8896" x="1231.7109" y="1012"/><text fill="#000000" font-family="Helvetica" font-size="14" lengthAdjust="spacing" textLength="3.8896" x="1231.7109" y="1022.7803">&#160;</text><text fill="#000000" font-family="Helvetica" font-size="14" lengthAdjust="spacing" textLength="84.0342" x="1239.4902" y="1022.7803">Orchestration</text><rect fill="#F3E0F7" height="14" style="stroke:none;stroke-width:1;" width="3.8896" x="1231.7109" y="1026"/><text fill="#000000" font-family="Helvetica" font-size="14" lengthAdjust="spacing" textLength="3.8896" x="1231.7109" y="1036.7803">&#160;</text><text fill="#000000" font-family="Helvetica" font-size="14" lengthAdjust="spacing" textLength="59.1514" x="1239.4902" y="1036.7803">AI agents</text><rect fill="#D0E0E3" height="14" style="stroke:none;stroke-width:1;" width="3.8896" x="1231.7109" y="1040"/><text fill="#000000" font-family="Helvetica" font-size="14" lengthAdjust="spacing" textLength="3.8896" x="1231.7109" y="1050.7803">&#160;</text><text fill="#000000" font-family="Helvetica" font-size="14" lengthAdjust="spacing" textLength="118.2822" x="1239.4902" y="1050.7803">Services / eventing</text><rect fill="#D5E8D4" height="14" style="stroke:none;stroke-width:1;" width="3.8896" x="1231.7109" y="1054"/><text fill="#000000" font-family="Helvetica" font-size="14" lengthAdjust="spacing" textLength="3.8896" x="1231.7109" y="1064.7803">&#160;</text><text fill="#000000" font-family="Helvetica" font-size="14" lengthAdjust="spacing" textLength="98.0342" x="1239.4902" y="1064.7803">Data (Postgres)</text><rect fill="#FFE6CC" height="14" style="stroke:none;stroke-width:1;" width="3.8896" x="1231.7109" y="1068"/><text fill="#000000" font-family="Helvetica" font-size="14" lengthAdjust="spacing" textLength="3.8896" x="1231.7109" y="1078.7803">&#160;</text><text fill="#000000" font-family="Helvetica" font-size="14" lengthAdjust="spacing" textLength="162.6201" x="1239.4902" y="1078.7803">External (Gemini, dataset)</text><line style="stroke:#000000;stroke-width:1;" x1="1231.7109" x2="1406" y1="998" y2="998"/><line style="stroke:#000000;stroke-width:1;" x1="1231.7109" x2="1406" y1="1012" y2="1012"/><line style="stroke:#000000;stroke-width:1;" x1="1231.7109" x2="1406" y1="1026" y2="1026"/><line style="stroke:#000000;stroke-width:1;" x1="1231.7109" x2="1406" y1="1040" y2="1040"/><line style="stroke:#000000;stroke-width:1;" x1="1231.7109" x2="1406" y1="1054" y2="1054"/><line style="stroke:#000000;stroke-width:1;" x1="1231.7109" x2="1406" y1="1068" y2="1068"/><line style="stroke:#000000;stroke-width:1;" x1="1231.7109" x2="1406" y1="1082" y2="1082"/><line style="stroke:#000000;stroke-width:1;" x1="1231.7109" x2="1231.7109" y1="998" y2="1082"/><line style="stroke:#000000;stroke-width:1;" x1="1235.6006" x2="1235.6006" y1="998" y2="1082"/><line style="stroke:#000000;stroke-width:1;" x1="1406" x2="1406" y1="998" y2="1082"/></g><?plantuml-src dLNRRjj647tdLmpi5wce95zogse8eINQPY9BggYgASh2M953QMDgLzrTAH6I07bgtuD-Gt-Xx_qKVqbdbnIj6abHzCdqpjcTCpDdZWmtESBPh7CU-WEuK6oTGWyD9ePB0NSVVuS8rOOd23svP5o0hv85j_6rmhFMhEDv-fQB5LDi2Nh1Klc6YpbaBDUu5r5oBTAkL08L79_i1LBCs3et5rAO0LiYN66-GSCJjeVnbP9lkZAN2WvFdfq-_kRqON2ouCcjGAtXkFbaFotnP69E5Rxp0CwbIb7TOq_ep2QEp9OGCvcdteTzQiom6TF_wsuYboifK9Z_VjbZYQ4A3tp1ygqsq8f5D-Vqn04m3SKd70RTuEBYsFFkApjuuRzgZ2F8sHQLmuw3Q0A7ASDdMUBotxCvS1Ek1Zn6BTSgmLYqCXjefBj8wvt2x4FhxkCViU226yuCmbz_0cvOlYw_5Hh5SUE-rwkqF1NIy6phYFYZSCVZdookZ5drvNnEKhdWkK4LYqGgXJcpkSFKldFTwze_hnhT-qWZJ6Cna-aMZ5gBn9r1ZQrMpRnuhRbaRniMK8_5JmifRt-6KHWIqvIviXoj_l0I3fCCJx9Js_UzLfOQRu4abQCsYbMNUiDhFnp08HwdZ_7flxUrN9bOF9ye9dIHckMGymoJRP9J91o4az2V13su-_KJ15E__ttrNo-CHiCewBcyqRIxI_gPb1F5sHohV9fb22-YuG18XgHS-vh3JL6bF36neCNCPoovXRlVFf5Gfc7mWqip6OV-PG27sIaUPKyVjCKF2tL1hKydtGNrwD7hUZ7YS7Vdioqf-FbpEg5kZ77EDKtRvnNZY2H4Vc4ShlPQIr6-UnaC9b-W4speERhbWC7KQlq8Z_3q8GC_HsKS66hTNaYIiFrmfttBmvfHZOIZlut5IvRTibP2wzxGj7r8PePiMNBf1-CgoKF5a4b0BbcwuzCV-hql4RBWFc6jtfyFPvgQW3HXmvHPhnpHM8pODk9Bw4PJDprjcDLrB9pAhILfD4xbP7kwNgKCnli4A-iw64bjvWgZx_eqUpkHctA3tUOaP49AvjOdoQ9qVOSnRyMDPiiLLLWh2PL427AHRz-mBKoFRswiCpJrBtcn8UT4uJ4-InzvUpLVIcaRTObB0iTYxlusJff7ZIndUX6Bo-2Qbk66lEBcPV1ZKL3_caQVuPCayJ9ksznisP9QNpKJlQbwL7O3QY_Pd78KpR2DsztrIjTiD3hEYzfmDPcC8gZP5QbxzgZPx3W_QCFPsKh93QVXGEOygTDn27kPbj2pYsY_oqrfLrRebISkYvMjLuZN_cyhQKEoOCRf84VRz-gfGbZjqZ8fhI8veDL11Q6cjc7412C_WfhRgQ0QODqhHs-Hjl0sJPAbzY7w0Hc0bSW-n3tsedVUXHapoGAu80aQZuxFcatBrVDof5rDGV7vmf1utyDPQU0T-dO_B2tNolTbi70c6npkMsOLBnROniafcFK1NSKAlTfOQGUQ7iTokUzHJb8MvNQjLYfQr-zpk6bRHF2MvcQTjbRexUkTHYoOwYgg-ni0?></g></svg>